/* XPM */
static const char * avif_xpm[] = {
"16 16 13 1",
" 	c None",
".	c #4E4E4E",
"+	c #B2B2B2",
"@	c #CACACA",
"#	c #DEDEDE",
"$	c #AEAEAE",
"%	c #FEFEFE",
"&	c #F2F2F2",
"*	c #464646",
"=	c #FFFF00",
"-	c #020202",
";	c #000000",
">	c #FEE202",
"..........+     ",
".@@@@@@@@.#$    ",
".@%%%%%%@.&#+   ",
".@%%%%%%@....   ",
".@%%%%%%@@@@.   ",
".***************",
".==============*",
".==---=-=-==;==*",
".==->-=-=-=;;==*",
".==---=-=-==;==*",
".==-=-=-=-==;==*",
".==-=-==-===;==*",
".==============*",
".***************",
".@@@@@@@@@@@.   ",
" ............   "};
