/* XPM */
static const char *codec_jpeg[] = {
/* columns rows colors chars-per-pixel */
"16 16 12 1",
"  c gray27",
". c #4C4C4C",
"X c #CF0008",
"o c #808000",
"O c #AEAEAE",
"+ c gray69",
"@ c #B1B1B1",
"# c #C8C8C8",
"$ c #DDDDDD",
"% c #F3F3F3",
"& c gray100",
"* c None",
/* pixels */
"..........+*****",
".########.$O****",
".#&&&&&&#.%$+***",
".#&&&&&&#....***",
".#&&&&&&####.***",
".               ",
".oooooooooooooo ",
".oo&o&&&ooo&&&o ",
".oo&o&oo&o&oooo ",
".oo&o&&&oo&o&&o ",
".&o&o&oooo&oo&o ",
".&&oo&ooooo&&&o ",
".oooooooooooooo ",
".               ",
".###########.***",
"*............***"
};
