/* XPM */
static const char * png_xpm[] = {
"16 16 10 1",
" 	c None",
".	c #4C4C4C",
"+	c #B0B0B0",
"@	c #C8C8C8",
"#	c #DDDDDD",
"$	c #AEAEAE",
"%	c #FFFFFF",
"&	c #F3F3F3",
"*	c #454545",
"=	c #800000",
"..........+     ",
".@@@@@@@@.#$    ",
".@%%%%%%@.&#+   ",
".@%%%%%%@....   ",
".@%%%%%%@@@@.   ",
".***************",
".==============*",
".%%%==%==%==%%%*",
".%==%=%%=%=%===*",
".%%%==%=%%=%=%%*",
".%====%==%=%==%*",
".%====%==%==%%%*",
".==============*",
".***************",
".@@@@@@@@@@@.   ",
" ............   "};
