#define bpp1_indexed_width 32
#define bpp1_indexed_height 32
static unsigned short bpp1_indexed_bits[] = {
   0xffff, 0x5577, 0xffff, 0xdbdd, 0xffff, 0x566b, 0xffff, 0xb5de, 0xffff,
   0x556b, 0xffff, 0xd6dd, 0xffff, 0xadbb, 0xffff, 0xb56b, 0xffff, 0x00dd,
   0xffff, 0x00b5, 0xffff, 0x005b, 0xffff, 0x00eb, 0xffff, 0x005e, 0xffff,
   0x00ea, 0xffff, 0x005b, 0xffff, 0x00ee, 0xdfff, 0x0000, 0x2955, 0x0000,
   0xaaaa, 0x0000, 0x2aaa, 0x0000, 0x5555, 0x0000, 0x5b6b, 0x0000, 0xaaaa,
   0x0000, 0x2aad, 0x0000, 0xaaff, 0x0000, 0x11ff, 0x0000, 0x2aff, 0x0000,
   0x4aff, 0x0000, 0x51ff, 0x0000, 0x15ff, 0x0000, 0x52ff, 0x0000, 0x24ff,
   0x0000 };
