/* XPM */
static char *bpp2_indexed[] = {
"8 8 4 1",
"  c #FF0000",
". c #00FF00",
"X c #0000FF",
"o c #FFFF00",
"  ......",
" X X....",
"  XX....",
"..XXoo..",
"..XXoo..",
"....oo  ",
"....o X ",
"......  "
};

