/* XPM */
static char *bpp8_indexed[] = {
"16 16 32 1",
"  c #000000",
". c #111111",
"X c #222222",
"o c #333333",
"O c #444444",
"+ c #555555",
"@ c #666666",
"# c #777777",
"$ c #888888",
"% c #999999",
"& c #AAAAAA",
"* c #BBBBBB",
"= c #CCCCCC",
"- c #DDDDDD",
"; c #EEEEEE",
": c #FFFFFF",
"> c #FF0000",
", c #00FF00",
"< c #0000FF",
"1 c #FFFF00",
"2 c #FF00FF",
"3 c #00FFFF",
"4 c #800000",
"5 c #008000",
"6 c #000080",
"7 c #808000",
"8 c #800080",
"9 c #008080",
"0 c #C0C0C0",
"q c #808080",
"w c #FFA500",
"e c #A52A2A",
"  ..XXooOO++@@##",
"..XXooOO++@@##$$",
"XXooOO++@@##$$%%",
"ooOO++@@##$$%%&&",
"OO++@@##$$%%&&**",
"++@@##$$%%&&**==",
"@@##$$%%&&**==--",
"##$$%%&&**==--;;",
"$$%%&&**==--;;::",
"%%&&**==--;;::>>",
"&&**==--;;::>>,,",
"**==--;;::>>,,<<",
"==--;;::>>,,<<11",
"--;;::>>,,<<1122",
";;::>>,,<<112233",
"::>>,,<<11223344"
};
