/* XPM */
static char *hotspot[] = {
"24 24 3 1 8 12",
"  c #FFFFFF",
". c #000000",
"X c None",
"XXXXXXXXXXXXXXXXXXXXXXXX",
"XXXXXXXXXXXXXXXXXXXXXXXX",
"XXXXXXXX..XXXXXXXXXXXXXX",
"XXXXXXX....XXXXXXXXXXXXX",
"XXXXXX......XXXXXXXXXXXX",
"XXXXX........XXXXXXXXXXX",
"XXXX..........XXXXXXXXXX",
"XXX............XXXXXXXXX",
"XX..............XXXXXXXX",
"X................XXXXXXX",
"..................XXXXXX",
"X................XXXXXXX",
"XX..............XXXXXXXX",
"XXX............XXXXXXXXX",
"XXXX..........XXXXXXXXXX",
"XXXXX........XXXXXXXXXXX",
"XXXXXX......XXXXXXXXXXXX",
"XXXXXXX....XXXXXXXXXXXXX",
"XXXXXXXX..XXXXXXXXXXXXXX",
"XXXXXXXXXXXXXXXXXXXXXXXX",
"XXXXXXXXXXXXXXXXXXXXXXXX",
"XXXXXXXXXXXXXXXXXXXXXXXX",
"XXXXXXXXXXXXXXXXXXXXXXXX",
"XXXXXXXXXXXXXXXXXXXXXXXX"
};

